<svg xmlns="http://www.w3.org/2000/svg" width="1200" height="630" viewBox="0 0 1200 630" role="img" aria-labelledby="title desc">
  <title id="title">Ink &amp; Memory</title>
  <desc id="desc">Social preview image for the Ink &amp; Memory AI writing workspace.</desc>
  <rect width="1200" height="630" fill="#f5e9d6"/>
  <path d="M0 88h1200M0 176h1200M0 264h1200M0 352h1200M0 440h1200M0 528h1200M120 0v630M240 0v630M360 0v630M480 0v630M600 0v630M720 0v630M840 0v630M960 0v630M1080 0v630" stroke="#fff5e6" stroke-opacity=".55" stroke-width="2"/>
  <rect x="84" y="82" width="1032" height="466" rx="34" fill="#fff5e6" stroke="#8b6a4a" stroke-opacity=".28" stroke-width="3"/>
  <circle cx="955" cy="176" r="86" fill="#ffd42a"/>
  <circle cx="1010" cy="244" r="38" fill="#39d353"/>
  <path d="M724 446c54-42 126-39 173 6 38 37 93 34 138-8" fill="none" stroke="#111" stroke-width="10" stroke-linecap="round"/>
  <text x="176" y="294" font-family="Inter, Avenir Next, Arial, sans-serif" font-size="82" font-weight="900" fill="#111">Ink &amp; Memory</text>
  <text x="181" y="362" font-family="Inter, Avenir Next, Arial, sans-serif" font-size="34" font-weight="700" fill="#111">AI writing workspace for reflection and memory</text>
  <text x="183" y="426" font-family="Inter, Avenir Next, Arial, sans-serif" font-size="28" font-weight="600" fill="#5f4b34">Journal · Writing timeline · Memory-based chat</text>
  <rect x="183" y="462" width="262" height="52" rx="26" fill="#ffd42a"/>
  <text x="314" y="497" text-anchor="middle" font-family="Inter, Avenir Next, Arial, sans-serif" font-size="22" font-weight="900" fill="#111">ink-memory.suoxya.com</text>
</svg>
